#tb 0: 1/25
#media_type 0: video
#codec_id 0: rawvideo
#dimensions 0: 352x432
#sar 0: 0/1
0,          0,          0,        1,   152064, 0x6e4f89ef
0,          4,          4,        1,   152064, 0x473db652
0,          6,          6,        1,   152064, 0x68b47c23
0,         10,         10,        1,   152064, 0xb45c4760
0,         12,         12,        1,   152064, 0xcc0bad61
0,         16,         16,        1,   152064, 0x93414e18
0,         18,         18,        1,   152064, 0xec506acc
0,         22,         22,        1,   152064, 0x59ac1d59
0,         24,         24,        1,   152064, 0x4491f9d6
0,         28,         28,        1,   152064, 0x8ae7a455
0,         30,         30,        1,   152064, 0x12286aca
0,         34,         34,        1,   152064, 0x52ee4378
0,         36,         36,        1,   152064, 0x25e737ab
0,         40,         40,        1,   152064, 0x812a5925
0,         42,         42,        1,   152064, 0xdd75bfa9
0,         46,         46,        1,   152064, 0xd6ab53ff
0,         48,         48,        1,   152064, 0x8b56b483
